<svg xmlns="http://www.w3.org/2000/svg" viewBox="0 0 100 100" fill="none">
  <g transform="translate(50, 50)">
    <polygon points="0,-38 22.2,-30.8 36,-12.8 36,12.8 22.2,30.8 0,38 -22.2,30.8 -36,12.8 -36,-12.8 -22.2,-30.8" fill="#1a7a7a" opacity="0.9"/>
    <polygon points="0,-38 22.2,-30.8 36,-12.8 36,12.8 22.2,30.8 0,38 -22.2,30.8 -36,12.8 -36,-12.8 -22.2,-30.8" fill="#2a9a9a" opacity="0.6" transform="rotate(20)"/>
    <polygon points="0,-26 15.2,-21.1 24.7,-8.8 24.7,8.8 15.2,21.1 0,26 -15.2,21.1 -24.7,8.8 -24.7,-8.8 -15.2,-21.1" fill="white"/>
  </g>
</svg>
